<mxfile host="app.diagrams.net" agent="Mozilla/5.0 (Windows NT 10.0; Win64; x64) AppleWebKit/537.36 (KHTML, like Gecko) Chrome/131.0.0.0 Safari/537.36" version="25.0.3">
  <diagram name="Página-1" id="300fUToeXubwseCXgY7B">
    <mxGraphModel dx="819" dy="470" grid="0" gridSize="10" guides="1" tooltips="1" connect="1" arrows="1" fold="1" page="1" pageScale="1" pageWidth="2339" pageHeight="3300" math="0" shadow="0">
      <root>
        <mxCell id="0" />
        <mxCell id="1" parent="0" />
        <mxCell id="4rIS1jC6eq3GYON5UIWy-1" style="edgeStyle=none;curved=1;rounded=0;orthogonalLoop=1;jettySize=auto;html=1;exitX=0.5;exitY=1;exitDx=0;exitDy=0;fontSize=12;startSize=8;endSize=8;endArrow=none;endFill=0;" parent="1" source="4rIS1jC6eq3GYON5UIWy-2" edge="1">
          <mxGeometry relative="1" as="geometry">
            <mxPoint x="178" y="560" as="targetPoint" />
          </mxGeometry>
        </mxCell>
        <mxCell id="4rIS1jC6eq3GYON5UIWy-2" value="USUARIO" style="rounded=0;whiteSpace=wrap;html=1;" parent="1" vertex="1">
          <mxGeometry x="118" y="156" width="120" height="60" as="geometry" />
        </mxCell>
        <mxCell id="4rIS1jC6eq3GYON5UIWy-3" style="edgeStyle=none;curved=1;rounded=0;orthogonalLoop=1;jettySize=auto;html=1;exitX=0.5;exitY=1;exitDx=0;exitDy=0;fontSize=12;startSize=8;endSize=8;endArrow=none;endFill=0;" parent="1" source="4rIS1jC6eq3GYON5UIWy-4" edge="1">
          <mxGeometry relative="1" as="geometry">
            <mxPoint x="360" y="560" as="targetPoint" />
          </mxGeometry>
        </mxCell>
        <mxCell id="4rIS1jC6eq3GYON5UIWy-4" value="INTERFAZ DE USUARIO" style="rounded=0;whiteSpace=wrap;html=1;" parent="1" vertex="1">
          <mxGeometry x="300" y="156" width="120" height="60" as="geometry" />
        </mxCell>
        <mxCell id="4rIS1jC6eq3GYON5UIWy-5" style="edgeStyle=none;curved=1;rounded=0;orthogonalLoop=1;jettySize=auto;html=1;exitX=0.5;exitY=1;exitDx=0;exitDy=0;fontSize=12;startSize=8;endSize=8;endArrow=none;endFill=0;" parent="1" source="4rIS1jC6eq3GYON5UIWy-6" edge="1">
          <mxGeometry relative="1" as="geometry">
            <mxPoint x="542" y="560" as="targetPoint" />
          </mxGeometry>
        </mxCell>
        <mxCell id="4rIS1jC6eq3GYON5UIWy-6" value="INTERFAZ DE SERVICIO" style="rounded=0;whiteSpace=wrap;html=1;" parent="1" vertex="1">
          <mxGeometry x="482" y="156" width="120" height="60" as="geometry" />
        </mxCell>
        <mxCell id="4rIS1jC6eq3GYON5UIWy-7" value="" style="endArrow=classic;html=1;rounded=0;fontSize=12;startSize=8;endSize=8;curved=1;" parent="1" edge="1">
          <mxGeometry width="50" height="50" relative="1" as="geometry">
            <mxPoint x="180" y="270" as="sourcePoint" />
            <mxPoint x="360" y="270" as="targetPoint" />
          </mxGeometry>
        </mxCell>
        <mxCell id="4rIS1jC6eq3GYON5UIWy-8" value="&lt;font style=&quot;font-size: 10px;&quot;&gt;Pulsar en &quot;Registrar cliente&quot;&lt;/font&gt;" style="text;html=1;align=center;verticalAlign=middle;resizable=0;points=[];autosize=1;strokeColor=none;fillColor=none;fontSize=16;" parent="1" vertex="1">
          <mxGeometry x="200" y="241" width="150" height="30" as="geometry" />
        </mxCell>
        <mxCell id="4rIS1jC6eq3GYON5UIWy-9" value="" style="endArrow=classic;html=1;rounded=0;fontSize=12;startSize=8;endSize=8;curved=1;" parent="1" edge="1">
          <mxGeometry width="50" height="50" relative="1" as="geometry">
            <mxPoint x="360" y="300" as="sourcePoint" />
            <mxPoint x="540" y="300" as="targetPoint" />
          </mxGeometry>
        </mxCell>
        <mxCell id="4rIS1jC6eq3GYON5UIWy-10" value="&lt;font style=&quot;font-size: 10px;&quot;&gt;Solicita informe para registrar cliente&lt;/font&gt;&lt;div&gt;&lt;br&gt;&lt;/div&gt;" style="text;html=1;align=center;verticalAlign=middle;resizable=0;points=[];autosize=1;strokeColor=none;fillColor=none;fontSize=16;" parent="1" vertex="1">
          <mxGeometry x="365" y="271" width="180" height="50" as="geometry" />
        </mxCell>
        <mxCell id="4rIS1jC6eq3GYON5UIWy-12" value="" style="endArrow=classic;html=1;rounded=0;fontSize=12;startSize=8;endSize=8;curved=1;dashed=1;" parent="1" edge="1">
          <mxGeometry width="50" height="50" relative="1" as="geometry">
            <mxPoint x="540" y="340" as="sourcePoint" />
            <mxPoint x="360" y="340" as="targetPoint" />
          </mxGeometry>
        </mxCell>
        <mxCell id="4rIS1jC6eq3GYON5UIWy-13" value="&lt;font style=&quot;font-size: 10px;&quot;&gt;Informe de registro&lt;/font&gt;" style="text;html=1;align=center;verticalAlign=middle;resizable=0;points=[];autosize=1;strokeColor=none;fillColor=none;fontSize=16;" parent="1" vertex="1">
          <mxGeometry x="400" y="310" width="110" height="30" as="geometry" />
        </mxCell>
        <mxCell id="4rIS1jC6eq3GYON5UIWy-14" value="" style="endArrow=classic;html=1;rounded=0;fontSize=12;startSize=8;endSize=8;curved=1;dashed=1;" parent="1" edge="1">
          <mxGeometry width="50" height="50" relative="1" as="geometry">
            <mxPoint x="360" y="370" as="sourcePoint" />
            <mxPoint x="180" y="370" as="targetPoint" />
          </mxGeometry>
        </mxCell>
        <mxCell id="4rIS1jC6eq3GYON5UIWy-15" value="&lt;font style=&quot;font-size: 10px;&quot;&gt;Informe de registro&lt;/font&gt;" style="text;html=1;align=center;verticalAlign=middle;resizable=0;points=[];autosize=1;strokeColor=none;fillColor=none;fontSize=16;" parent="1" vertex="1">
          <mxGeometry x="220" y="340" width="110" height="30" as="geometry" />
        </mxCell>
        <mxCell id="4rIS1jC6eq3GYON5UIWy-17" value="" style="endArrow=classic;html=1;rounded=0;fontSize=12;startSize=8;endSize=8;curved=1;" parent="1" edge="1">
          <mxGeometry width="50" height="50" relative="1" as="geometry">
            <mxPoint x="180" y="419" as="sourcePoint" />
            <mxPoint x="360" y="419" as="targetPoint" />
          </mxGeometry>
        </mxCell>
        <mxCell id="4rIS1jC6eq3GYON5UIWy-18" value="&lt;font style=&quot;font-size: 10px;&quot;&gt;Rellena la información del cliente&lt;/font&gt;" style="text;html=1;align=center;verticalAlign=middle;resizable=0;points=[];autosize=1;strokeColor=none;fillColor=none;fontSize=16;" parent="1" vertex="1">
          <mxGeometry x="190" y="390" width="170" height="30" as="geometry" />
        </mxCell>
        <mxCell id="4rIS1jC6eq3GYON5UIWy-19" value="" style="endArrow=classic;html=1;rounded=0;fontSize=12;startSize=8;endSize=8;curved=1;" parent="1" edge="1">
          <mxGeometry width="50" height="50" relative="1" as="geometry">
            <mxPoint x="360" y="449" as="sourcePoint" />
            <mxPoint x="540" y="449" as="targetPoint" />
          </mxGeometry>
        </mxCell>
        <mxCell id="4rIS1jC6eq3GYON5UIWy-20" value="&lt;font style=&quot;font-size: 10px;&quot;&gt;Solicita registrar el cliente&lt;/font&gt;&lt;div&gt;&lt;font style=&quot;font-size: 10px;&quot;&gt;registrarCliente()&lt;/font&gt;&lt;/div&gt;" style="text;html=1;align=center;verticalAlign=middle;resizable=0;points=[];autosize=1;strokeColor=none;fillColor=none;fontSize=16;" parent="1" vertex="1">
          <mxGeometry x="389" y="402" width="132" height="50" as="geometry" />
        </mxCell>
        <mxCell id="4rIS1jC6eq3GYON5UIWy-21" value="" style="endArrow=classic;html=1;rounded=0;fontSize=12;startSize=8;endSize=8;curved=1;dashed=1;" parent="1" edge="1">
          <mxGeometry width="50" height="50" relative="1" as="geometry">
            <mxPoint x="540" y="490" as="sourcePoint" />
            <mxPoint x="360" y="490" as="targetPoint" />
          </mxGeometry>
        </mxCell>
        <mxCell id="4rIS1jC6eq3GYON5UIWy-22" value="&lt;font style=&quot;font-size: 10px;&quot;&gt;Cliente registrado&lt;/font&gt;" style="text;html=1;align=center;verticalAlign=middle;resizable=0;points=[];autosize=1;strokeColor=none;fillColor=none;fontSize=16;" parent="1" vertex="1">
          <mxGeometry x="405" y="460" width="100" height="30" as="geometry" />
        </mxCell>
        <mxCell id="4rIS1jC6eq3GYON5UIWy-23" value="" style="endArrow=classic;html=1;rounded=0;fontSize=12;startSize=8;endSize=8;curved=1;dashed=1;" parent="1" edge="1">
          <mxGeometry width="50" height="50" relative="1" as="geometry">
            <mxPoint x="360" y="520" as="sourcePoint" />
            <mxPoint x="180" y="520" as="targetPoint" />
          </mxGeometry>
        </mxCell>
        <mxCell id="4rIS1jC6eq3GYON5UIWy-24" value="&lt;font style=&quot;font-size: 10px;&quot;&gt;Cliente registrado&lt;/font&gt;" style="text;html=1;align=center;verticalAlign=middle;resizable=0;points=[];autosize=1;strokeColor=none;fillColor=none;fontSize=16;" parent="1" vertex="1">
          <mxGeometry x="225" y="490" width="100" height="30" as="geometry" />
        </mxCell>
      </root>
    </mxGraphModel>
  </diagram>
</mxfile>
